<?xml version="1.0" encoding="UTF-8"?>
<svg width="24px" height="23px" viewBox="0 0 24 23" version="1.1" xmlns="http://www.w3.org/2000/svg" xmlns:xlink="http://www.w3.org/1999/xlink">
    <!-- Generator: Sketch 42 (36781) - http://www.bohemiancoding.com/sketch -->
    <title>Github-color</title>
    <desc>Created with Sketch.</desc>
    <defs></defs>
    <g id="Page-1" stroke="none" stroke-width="1" fill="none" fill-rule="evenodd">
        <g id="Desktop-HD-Copy-2" transform="translate(-322.000000, -580.000000)" fill="#3E75C3">
            <path d="M333.99925,580 C327.373,580 322,585.27879 322,591.791975 C322,597.000754 325.438,601.420257 330.20725,602.979648 C330.80725,603.08798 331.02625,602.723926 331.02625,602.411458 C331.02625,602.131416 331.01575,601.390042 331.00975,600.406211 C327.6715,601.118844 326.96725,598.825448 326.96725,598.825448 C326.422,597.46356 325.63525,597.10098 325.63525,597.10098 C324.5455,596.369186 325.71775,596.383925 325.71775,596.383925 C326.9215,596.4672 327.55525,597.599159 327.55525,597.599159 C328.62625,599.401008 330.364,598.880719 331.048,598.578569 C331.15675,597.81656 331.46725,597.297009 331.81,597.002228 C329.14525,596.704499 326.344,595.6934 326.344,591.175146 C326.344,589.88769 326.81125,588.835322 327.57925,588.010672 C327.4555,587.712206 327.04375,586.513922 327.69625,584.890416 C327.69625,584.890416 328.70425,584.573526 330.99625,586.099018 C331.954,585.8374 332.98,585.706959 334.00075,585.7018 C335.02,585.706959 336.04675,585.8374 337.00525,586.099018 C339.29575,584.573526 340.3015,584.890416 340.3015,584.890416 C340.95625,586.513922 340.5445,587.712206 340.42075,588.010672 C341.19025,588.835322 341.6545,589.88769 341.6545,591.175146 C341.6545,595.704455 338.84875,596.701551 336.17575,596.993384 C336.60625,597.357439 336.99025,598.076704 336.99025,599.176974 C336.99025,600.753315 336.97525,602.024558 336.97525,602.411458 C336.97525,602.726874 337.19125,603.093876 337.80025,602.978175 C342.565,601.415836 346,596.99928 346,591.791975 C346,585.27879 340.627,580 333.99925,580" id="Github"></path>
        </g>
    </g>
</svg>