<?xml version="1.0" encoding="UTF-8"?>
<svg width="24px" height="20px" viewBox="0 0 24 20" version="1.1" xmlns="http://www.w3.org/2000/svg" xmlns:xlink="http://www.w3.org/1999/xlink">
    <!-- Generator: Sketch 42 (36781) - http://www.bohemiancoding.com/sketch -->
    <title>Twitter-color</title>
    <desc>Created with Sketch.</desc>
    <defs></defs>
    <g id="Page-1" stroke="none" stroke-width="1" fill="none" fill-rule="evenodd">
        <g id="Desktop-HD-Copy-2" transform="translate(-250.000000, -582.000000)" fill="#00AAEC">
            <path d="M274,584.367642 C273.118155,584.769231 272.168692,585.040809 271.172742,585.162152 C272.189822,584.5381 272.970241,583.548573 273.337912,582.369809 C272.385631,582.947635 271.333333,583.368003 270.209192,583.593355 C269.313259,582.612495 268.032752,582 266.615601,582 C263.898222,582 261.693608,584.260744 261.693608,587.048754 C261.693608,587.444565 261.735869,587.828819 261.820391,588.198628 C257.728121,587.987721 254.100722,585.979776 251.670717,582.921632 C251.246698,583.669917 251.004402,584.5381 251.004402,585.462622 C251.004402,587.213434 251.873569,588.759119 253.194929,589.664861 C252.389153,589.640303 251.628456,589.410618 250.96355,589.035031 L250.96355,589.097147 C250.96355,591.54424 252.661032,593.58541 254.91495,594.047671 C254.502201,594.166125 254.066913,594.225352 253.617538,594.225352 C253.300581,594.225352 252.990667,594.195016 252.690615,594.135789 C253.317485,596.140845 255.134707,597.6013 257.290016,597.640303 C255.605212,598.995305 253.480895,599.802817 251.174855,599.802817 C250.777602,599.802817 250.384575,599.779704 250,599.733478 C252.179257,601.163597 254.768445,602 257.547808,602 C266.60574,602 271.557316,594.307692 271.557316,587.635247 C271.557316,587.415674 271.55309,587.1961 271.544638,586.98086 C272.506779,586.268689 273.342138,585.380282 274,584.367642" id="Twitter"></path>
        </g>
    </g>
</svg>