<?xml version="1.0" encoding="UTF-8"?>
<svg width="23px" height="23px" viewBox="0 0 23 23" version="1.1" xmlns="http://www.w3.org/2000/svg" xmlns:xlink="http://www.w3.org/1999/xlink">
    <!-- Generator: Sketch 42 (36781) - http://www.bohemiancoding.com/sketch -->
    <title>Dribbble-color</title>
    <desc>Created with Sketch.</desc>
    <defs></defs>
    <g id="Page-1" stroke="none" stroke-width="1" fill="none" fill-rule="evenodd">
        <g id="Desktop-HD-Copy-2" transform="translate(-179.000000, -580.000000)" fill="#EC4989">
            <path d="M195.988652,599.645129 C195.888575,599.052854 195.365203,596.16991 194.07638,592.631136 C197.247722,592.124052 199.994414,592.993533 200.197272,593.059792 C199.760452,595.796696 198.193038,598.156329 195.988652,599.645129 L195.988652,599.645129 L195.988652,599.645129 Z M190.500676,601.321888 C188.123185,601.321888 185.943141,600.476748 184.243194,599.070433 C184.373023,599.175907 184.463633,599.242166 184.463633,599.242166 C184.463633,599.242166 186.346152,595.13681 192.170871,593.10712 C192.192509,593.099006 192.2155,593.093598 192.237138,593.086836 C193.619274,596.676995 194.188628,599.684344 194.334686,600.543007 C193.156759,601.04333 191.859822,601.321888 190.500676,601.321888 L190.500676,601.321888 L190.500676,601.321888 Z M180.678309,591.499324 C180.678309,591.395203 180.683718,591.292433 180.686423,591.189664 C180.860881,591.193721 185.713236,591.303251 190.769801,589.790111 C191.051097,590.340467 191.320221,590.90164 191.566355,591.460109 C191.436526,591.495267 191.30805,591.534482 191.179573,591.577753 C185.879579,593.28967 183.191039,598.057617 183.191039,598.057617 C183.191039,598.057617 183.195096,598.061673 183.195096,598.063025 C181.630387,596.322712 180.678309,594.022576 180.678309,591.499324 L180.678309,591.499324 L180.678309,591.499324 Z M186.309637,582.61926 C186.440818,582.793697 188.257071,585.2561 189.957018,588.276971 C185.241254,589.530484 181.147586,589.480452 180.889281,589.476395 C181.526254,586.433888 183.569707,583.911988 186.309637,582.61926 L186.309637,582.61926 L186.309637,582.61926 Z M188.147527,581.964783 C188.147527,581.966136 188.146175,581.967488 188.146175,581.967488 C188.146175,581.967488 188.134004,581.970192 188.116423,581.972897 C188.127242,581.970192 188.136708,581.96884 188.147527,581.964783 L188.147527,581.964783 L188.147527,581.964783 Z M196.986711,584.131048 C196.962368,584.167558 195.564003,586.297313 191.855765,587.686049 C190.177456,584.601623 188.332804,582.15139 188.185394,581.95667 C188.927853,581.776824 189.702769,581.679464 190.500676,581.679464 C192.986359,581.679464 195.257012,582.60709 196.986711,584.131048 L196.986711,584.131048 L196.986711,584.131048 Z M200.318986,591.401964 C200.176986,591.370862 196.852825,590.655535 193.478626,591.080134 C193.408302,590.912458 193.339331,590.74343 193.266302,590.574402 C193.062092,590.09301 192.841653,589.617026 192.6131,589.149156 C196.491739,587.565701 198.065914,585.289905 198.084847,585.262861 C199.461575,586.935564 200.295996,589.072079 200.318986,591.401964 L200.318986,591.401964 L200.318986,591.401964 Z M201.76739,589.185666 C201.615923,588.447351 201.388722,587.718502 201.095255,587.023458 C200.808549,586.341937 200.450168,585.684755 200.034986,585.070845 C199.625213,584.462343 199.151879,583.889 198.632563,583.369745 C198.111895,582.849139 197.539837,582.377212 196.929911,581.966136 C196.315929,581.54965 195.65867,581.194015 194.977068,580.904639 C194.281943,580.612558 193.55436,580.385384 192.815958,580.235287 C192.058623,580.079781 191.27965,580 190.500676,580 C189.72035,580 188.941377,580.079781 188.184042,580.235287 C187.44564,580.385384 186.718057,580.612558 186.022932,580.904639 C185.34133,581.194015 184.684071,581.54965 184.068736,581.966136 C183.460163,582.377212 182.888105,582.849139 182.367437,583.369745 C181.848121,583.889 181.376139,584.462343 180.965014,585.070845 C180.549832,585.684755 180.191451,586.341937 179.904745,587.023458 C179.609925,587.718502 179.384077,588.447351 179.23261,589.185666 C179.078438,589.94156 179,590.720442 179,591.499324 C179,592.28091 179.078438,593.059792 179.23261,593.817038 C179.384077,594.555353 179.609925,595.28285 179.904745,595.976542 C180.191451,596.658063 180.549832,597.317949 180.965014,597.93186 C181.376139,598.540361 181.848121,599.111 182.367437,599.632959 C182.888105,600.152214 183.460163,600.622788 184.068736,601.035217 C184.684071,601.45035 185.34133,601.807337 186.022932,602.095361 C186.718057,602.390146 187.44564,602.614616 188.184042,602.764713 C188.941377,602.921571 189.72035,603 190.500676,603 C191.27965,603 192.058623,602.921571 192.815958,602.764713 C193.55436,602.614616 194.281943,602.390146 194.977068,602.095361 C195.65867,601.807337 196.315929,601.45035 196.929911,601.035217 C197.539837,600.622788 198.111895,600.152214 198.632563,599.632959 C199.151879,599.111 199.625213,598.540361 200.034986,597.93186 C200.450168,597.317949 200.808549,596.658063 201.095255,595.976542 C201.388722,595.28285 201.615923,594.555353 201.76739,593.817038 C201.921562,593.059792 202,592.28091 202,591.499324 C202,590.720442 201.921562,589.94156 201.76739,589.185666 L201.76739,589.185666 L201.76739,589.185666 Z" id="Dribbble"></path>
        </g>
    </g>
</svg>